<svg width="65" height="65" viewBox="0 0 65 65" fill="none" xmlns="http://www.w3.org/2000/svg">
<path d="M0 4C0 1.79086 1.79086 0 4 0H61C63.2091 0 65 1.79086 65 4V61C65 63.2091 63.2091 65 61 65H4C1.79086 65 0 63.2091 0 61V4Z" fill="#F57920"/>
<path d="M7.8857 45V19.8H19.8017C22.5857 19.8 25.0337 20.316 27.1457 21.348C29.2577 22.38 30.9017 23.832 32.0777 25.704C33.2777 27.576 33.8777 29.808 33.8777 32.4C33.8777 34.968 33.2777 37.2 32.0777 39.096C30.9017 40.968 29.2577 42.42 27.1457 43.452C25.0337 44.484 22.5857 45 19.8017 45H7.8857ZM15.0137 39.312H19.5137C20.9537 39.312 22.2017 39.048 23.2577 38.52C24.3377 37.968 25.1777 37.176 25.7777 36.144C26.3777 35.088 26.6777 33.84 26.6777 32.4C26.6777 30.936 26.3777 29.688 25.7777 28.656C25.1777 27.624 24.3377 26.844 23.2577 26.316C22.2017 25.764 20.9537 25.488 19.5137 25.488H15.0137V39.312ZM49.4719 25.164C50.9839 25.164 52.3519 25.476 53.5759 26.1C54.7999 26.7 55.7599 27.636 56.4559 28.908C57.1759 30.18 57.5359 31.824 57.5359 33.84V45H50.6959V34.956C50.6959 33.564 50.4079 32.556 49.8319 31.932C49.2799 31.284 48.4999 30.96 47.4919 30.96C46.7719 30.96 46.1119 31.128 45.5119 31.464C44.9119 31.776 44.4439 32.268 44.1079 32.94C43.7719 33.612 43.6039 34.488 43.6039 35.568V45H36.7639V25.488H43.2799V31.032L42.0199 29.412C42.7639 27.996 43.7839 26.94 45.0799 26.244C46.3759 25.524 47.8399 25.164 49.4719 25.164Z" fill="white"/>
<rect x="40" y="20" width="14" height="3" rx="0.5" fill="white"/>
</svg>
