<svg width="42" height="37" viewBox="0 0 42 37" fill="none" xmlns="http://www.w3.org/2000/svg">
<path d="M12.7082 17.5835H2.93738C3.10405 7.85433 5.02072 6.25016 10.9999 2.70849C11.6874 2.29183 11.9165 1.41683 11.4999 0.708496C11.0832 0.0209958 10.2082 -0.20817 9.49988 0.208496C2.45821 4.37516 -0.000119317 6.91683 -0.000119317 19.0418V30.271C-0.000119317 33.8335 2.89572 36.7085 6.43738 36.7085H12.6874C16.354 36.7085 19.1249 33.9377 19.1249 30.271V24.021C19.1457 20.3543 16.3749 17.5835 12.7082 17.5835Z" fill="#787A82"/>
<path d="M35.2498 17.5835H25.4789C25.6456 7.85433 27.5623 6.25016 33.5414 2.70849C34.2289 2.29183 34.4581 1.41683 34.0414 0.708496C33.6248 0.0209958 32.7498 -0.20817 32.0414 0.208496C24.9998 4.37516 22.5414 6.91683 22.5414 19.0418V30.271C22.5414 33.8335 25.4373 36.7085 28.9789 36.7085H35.2289C38.9164 36.7085 41.6873 33.9377 41.6873 30.271V24.021C41.6873 20.3543 38.9164 17.5835 35.2498 17.5835Z" fill="#787A82"/>
</svg>
