<svg width="65" height="66" viewBox="0 0 65 66" fill="none" xmlns="http://www.w3.org/2000/svg">
<mask id="mask0_147_247" style="mask-type:luminance" maskUnits="userSpaceOnUse" x="0" y="0" width="65" height="66">
<path d="M64.0811 0.5H0V65.5H64.0811V0.5Z" fill="white"/>
</mask>
<g mask="url(#mask0_147_247)">
<path d="M62.871 30.1057L34.8935 1.72705C34.5106 1.33826 34.0556 1.02987 33.5551 0.81946C33.0543 0.609023 32.5177 0.500732 31.9759 0.500732C31.434 0.500732 30.8974 0.609023 30.3966 0.81946C29.8961 1.02987 29.4411 1.33826 29.0582 1.72705L23.2509 7.61768L30.6202 15.0927C32.3344 14.4833 34.2969 14.8997 35.6624 16.285C36.3125 16.9456 36.7666 17.7784 36.9723 18.6882C37.178 19.598 37.1273 20.5482 36.8258 21.4302L43.9289 28.6351C45.6472 28.0339 47.6296 28.4216 49.0012 29.8171C49.4575 30.2799 49.8192 30.8292 50.0659 31.4337C50.3127 32.0382 50.4395 32.6859 50.4395 33.3401C50.4392 33.9944 50.3123 34.6421 50.0653 35.2466C49.8183 35.8508 49.4565 36.4 49.0003 36.8625C48.5443 37.3253 48.0029 37.6919 47.4069 37.9421C46.8109 38.1927 46.1724 38.3214 45.5274 38.3211C44.8824 38.3211 44.2435 38.1921 43.6479 37.9418C43.0519 37.6912 42.5105 37.3243 42.0545 36.8615C40.6127 35.399 40.2564 33.2459 40.9853 31.4441L34.3609 24.7247V42.407C34.8419 42.6481 35.2812 42.9666 35.6624 43.3495C36.1184 43.8119 36.4801 44.3609 36.7271 44.9654C36.9739 45.5695 37.1007 46.2173 37.1007 46.8715C37.1007 47.5257 36.9739 48.1735 36.7271 48.7776C36.4801 49.3821 36.1184 49.9314 35.6624 50.3938C35.2065 50.8563 34.665 51.2233 34.0694 51.4735C33.4734 51.7238 32.8349 51.8528 32.1902 51.8528C31.5452 51.8528 30.9067 51.7238 30.311 51.4735C29.7151 51.2233 29.1736 50.8563 28.7176 50.3938C28.2611 49.9314 27.899 49.3825 27.652 48.7783C27.4046 48.1738 27.2774 47.5257 27.2774 46.8715C27.2774 46.2173 27.4046 45.5696 27.652 44.9651C27.899 44.3606 28.2611 43.8116 28.7176 43.3495C29.1922 42.8701 29.7189 42.5064 30.3258 42.2627V24.416C29.741 24.1722 29.1922 23.8128 28.7176 23.3294C28.0281 22.6308 27.5594 21.7398 27.371 20.7699C27.1829 19.8 27.2835 18.7952 27.6603 17.8836L20.3912 10.5142L1.2069 29.9533C0.823338 30.342 0.519049 30.8035 0.311426 31.3115C0.103804 31.8195 -0.00305176 32.3638 -0.00305176 32.9137C-0.00305176 33.4636 0.103804 34.0083 0.311426 34.5163C0.519049 35.0243 0.823338 35.4858 1.2069 35.8745L29.1864 64.2509C29.5693 64.6396 30.0243 64.948 30.5247 65.1586C31.0255 65.3689 31.5622 65.4771 32.104 65.4771C32.6458 65.4771 33.1825 65.3689 33.6833 65.1586C34.1838 64.948 34.6387 64.6396 35.0216 64.2509L62.871 36.047C63.2545 35.6583 63.5589 35.1968 63.7665 34.6889C63.9741 34.1809 64.0808 33.6365 64.0808 33.0866C64.0808 32.5367 63.9741 31.992 63.7665 31.4841C63.5589 30.9761 63.2545 30.5146 62.871 30.1259" fill="#333232"/>
</g>
</svg>
