<svg width="108" height="66" viewBox="0 0 108 66" fill="none" xmlns="http://www.w3.org/2000/svg">
<path fill-rule="evenodd" clip-rule="evenodd" d="M97.2219 0.5H10.4541C4.96311 0.5 0.518262 5.09819 0.561841 10.6787V44.6072C0.561841 50.2326 5.00725 54.786 10.4982 54.786H51.5941L70.3771 65.5L66.1062 54.786H97.2219C102.713 54.786 107.158 50.2321 107.158 44.6072V10.6787C107.158 5.0534 102.713 0.5 97.2219 0.5ZM9.36142 8.40109C8.14813 8.48986 7.23815 8.93376 6.63151 9.77714L6.63201 9.77705C6.02538 10.5761 5.76538 11.597 5.93871 12.7511C8.49536 29.3967 10.8787 40.6269 13.0886 46.442C13.9552 48.5727 14.9519 49.5936 16.1218 49.5049C17.9419 49.3718 20.1085 46.7971 22.665 41.7814C24.0083 38.9405 26.0881 34.6789 28.9047 28.9973C31.2444 37.3871 34.451 43.6901 38.4809 47.907C39.6075 49.1055 40.7774 49.6382 41.9041 49.5494C42.9007 49.4606 43.6807 48.928 44.2006 47.9514C44.634 47.1081 44.8073 46.1315 44.7206 45.0218C44.4606 40.9823 44.8506 35.3451 45.9339 28.1095C47.0604 20.6526 48.4471 15.2814 50.137 12.0854C50.4837 11.4196 50.6137 10.7538 50.5703 9.95475C50.4837 8.93381 50.0503 8.09044 49.227 7.42459C48.4038 6.75876 47.4938 6.44804 46.4971 6.53682C45.2405 6.62563 44.2872 7.24706 43.6372 8.48994C40.9505 13.5062 39.0439 21.6289 37.9172 32.9039C36.2706 28.6426 34.884 23.6269 33.8007 17.723C33.3241 15.104 32.1541 13.8612 30.2475 13.9943C28.9475 14.0831 27.8642 14.9709 26.9976 16.6577L17.508 35.1677C15.9479 28.7311 14.4746 20.8745 13.1313 11.5971C12.828 9.28887 11.5713 8.22354 9.36142 8.40109ZM92.8206 11.5968C95.897 12.2626 98.1936 13.9496 99.7535 16.7461C101.14 19.1433 101.877 22.0284 101.833 25.4908C101.833 30.0625 100.707 34.2352 98.4535 38.0526C95.8536 42.4916 92.4737 44.711 88.2707 44.711C87.534 44.711 86.754 44.6222 85.9308 44.4447C82.8544 43.7788 80.5578 42.0919 78.9978 39.2954C77.6112 36.8538 76.9179 33.9243 76.9179 30.5064C76.9179 25.9346 78.0445 21.7619 80.2978 17.9889C82.9411 13.5499 86.3208 11.3305 90.4807 11.3305C91.2173 11.3305 91.9973 11.4192 92.8206 11.5968ZM91.0006 35.6115C92.6039 34.1463 93.6871 31.9714 94.2938 29.0418C94.5105 28.0208 94.5972 26.9112 94.5972 25.7571C94.5972 24.4698 94.3372 23.0938 93.8172 21.7177C93.1673 19.9866 92.3006 19.0544 91.2606 18.8325C89.7006 18.5217 88.184 19.4095 86.754 21.5845C85.5841 23.2714 84.8475 25.047 84.4575 26.8669C84.2408 27.8878 84.1541 28.9976 84.1541 30.1073C84.1541 31.3946 84.4141 32.7706 84.9341 34.1467C85.5841 35.8778 86.4507 36.81 87.4907 37.0319C88.574 37.2538 89.7439 36.7656 91.0006 35.6115ZM65.6947 11.5968C68.7278 12.2626 71.0677 13.9496 72.6276 16.7461C74.0143 19.1433 74.7076 22.0284 74.7076 25.4908C74.7076 30.0625 73.5809 34.2352 71.3277 38.0526C68.7277 42.4916 65.3478 44.711 61.1448 44.711C60.4081 44.711 59.6282 44.6222 58.8049 44.4447C55.7285 43.7788 53.4319 42.0919 51.8719 39.2954C50.4853 36.8538 49.792 33.9243 49.792 30.5064C49.792 25.9346 50.9186 21.7619 53.1719 17.9889C55.8152 13.5499 59.1949 11.3305 63.3548 11.3305C64.0914 11.3305 64.8714 11.4192 65.6947 11.5968ZM63.8314 35.6115C65.4347 34.1463 66.518 31.9714 67.1246 29.0418C67.3413 28.0208 67.4713 26.9112 67.428 25.7571C67.428 24.4698 67.168 23.0938 66.648 21.7177C65.9981 19.9866 65.1314 19.0544 64.0914 18.8325C62.5314 18.5217 61.0148 19.4095 59.5848 21.5845C58.4149 23.2714 57.6782 25.047 57.2883 26.8669C57.0716 27.8878 56.9849 28.9976 56.9849 30.1073C56.9849 31.3946 57.2449 32.7706 57.7649 34.1467C58.4149 35.8778 59.2815 36.81 60.3215 37.0319C61.4048 37.2538 62.5748 36.7656 63.8314 35.6115Z" fill="#333232"/>
</svg>
