<svg width="61" height="66" viewBox="0 0 61 66" fill="none" xmlns="http://www.w3.org/2000/svg">
<path d="M37.1251 17.3762C31.2836 17.3762 25.526 19.884 21.1304 24.8146V0.5H12.4319V41.4352C12.4319 41.4361 12.4319 41.4371 12.4319 41.4382C12.4319 54.7272 23.2047 65.5 36.4938 65.5C49.7828 65.5 60.5557 54.7272 60.5557 41.4382C60.5557 28.1493 50.4141 17.3762 37.1251 17.3762ZM36.4938 56.2323C28.3231 56.2323 21.6994 49.6086 21.6994 41.4381C21.6994 33.2674 28.3231 26.6437 36.4938 26.6437C44.6643 26.6437 51.288 33.2674 51.288 41.4381C51.288 49.6088 44.6643 56.2323 36.4938 56.2323Z" fill="#333232"/>
<path d="M6.10832 53.5996C2.82207 53.5996 0.158203 56.2636 0.158203 59.5497C0.158203 62.8358 2.82207 65.4998 6.10832 65.4998C9.39456 65.4998 12.0584 62.8358 12.0584 59.5497C12.0584 56.2636 9.39456 53.5996 6.10832 53.5996Z" fill="#333232"/>
</svg>
