<svg width="64" height="65" viewBox="0 0 64 65" fill="none" xmlns="http://www.w3.org/2000/svg">
<mask id="path-1-inside-1_149_287" fill="white">
<path fill-rule="evenodd" clip-rule="evenodd" d="M58.0653 0.0100867C60.0217 0.0100867 61.8318 1.06896 62.7495 2.78838C63.6269 4.4372 63.5916 6.37848 62.6537 7.99201L62.6235 8.04747L54.3945 21.8129C53.4617 23.371 51.7826 24.3391 49.9875 24.3592H49.927H40.5282L44.436 33.2992L44.4511 33.3244L44.4763 33.3647C45.394 35.0287 45.3739 37.0053 44.4209 38.639L44.3906 38.6944L36.1616 52.4599C35.2288 54.0179 33.5497 54.986 31.7547 55.0062H31.6942H20.1625L11.873 63.7495L11.8578 63.7646C11.0763 64.5563 10.0224 65 8.92323 65C8.65094 65 8.37362 64.9697 8.10134 64.9143C6.76009 64.642 5.64575 63.7193 5.11127 62.4536L5.09614 62.4184L0.73457 52.4044L0.709357 52.3641L0.684148 52.3237C0.684148 52.3237 0.674061 52.3086 0.674061 52.3036C-0.243634 50.6396 -0.223464 48.663 0.729526 47.0293L0.759782 46.9739L8.74171 33.6219L2.86241 20.159L2.9683 20.1036V20.0935C2.71618 18.8531 2.91787 17.5623 3.55824 16.4328L3.59354 16.3723L3.6238 16.3168L11.8528 2.55139C12.7856 0.993327 14.4647 0.0252114 16.2597 0H58.0703L58.0653 0.0100867ZM14.858 54.9054H6.11468L8.6812 60.8452V60.8603C8.73162 60.9662 8.79717 61.0267 8.90306 61.0469C8.99382 61.067 9.06945 61.0469 9.14005 60.9813L9.15013 60.9712L14.858 54.9054ZM39.8475 34.4841H13.4209C13.3907 34.4841 13.3604 34.4841 13.3352 34.4841H13.3251L20.5709 51.0581H31.6891C32.148 51.0581 32.5866 50.811 32.8388 50.4228L32.8589 50.3925L41.098 36.617C41.3451 36.2086 41.3703 35.7296 41.1787 35.301C40.9518 34.8068 40.4324 34.4841 39.8526 34.4841H39.8475ZM10.6729 37.8877L4.13306 48.9101C3.87087 49.3488 3.85574 49.8631 4.09272 50.3169L4.11794 50.3623L4.13306 50.3824L4.15828 50.4278L4.2087 50.5035L4.26921 50.5791L4.32467 50.6446L4.33476 50.6547L4.37005 50.6951L4.40535 50.7253C4.61208 50.9119 4.8642 51.0278 5.14656 51.0531H5.20707L5.24237 51.0581H5.28775H16.3858L10.6729 37.8826V37.8877ZM8.95348 24.3844L11.8276 30.9747L11.883 30.9545C12.3772 30.7881 12.8965 30.6974 13.4209 30.6923H13.5016H39.1214L36.3734 24.3895H8.95852L8.95348 24.3844ZM57.9896 3.8523H31.4673L38.718 20.4313H49.8312C50.2901 20.4313 50.7288 20.1842 50.9809 19.7909L51.001 19.7607L59.2401 5.98518C59.4872 5.57676 59.5124 5.09774 59.3208 4.66915C59.0989 4.18509 58.5947 3.86239 58.03 3.84726H57.9947L57.9896 3.8523ZM27.4082 3.8523H16.3555C15.9017 3.8523 15.4631 4.09433 15.2109 4.48762L15.1908 4.51788L6.97187 18.2934C6.7248 18.7068 6.69958 19.1808 6.89623 19.6094C7.11305 20.0935 7.61728 20.4162 8.17697 20.4263H8.21227H34.6338L27.4032 3.84726L27.4082 3.8523Z"/>
</mask>
<path fill-rule="evenodd" clip-rule="evenodd" d="M58.0653 0.0100867C60.0217 0.0100867 61.8318 1.06896 62.7495 2.78838C63.6269 4.4372 63.5916 6.37848 62.6537 7.99201L62.6235 8.04747L54.3945 21.8129C53.4617 23.371 51.7826 24.3391 49.9875 24.3592H49.927H40.5282L44.436 33.2992L44.4511 33.3244L44.4763 33.3647C45.394 35.0287 45.3739 37.0053 44.4209 38.639L44.3906 38.6944L36.1616 52.4599C35.2288 54.0179 33.5497 54.986 31.7547 55.0062H31.6942H20.1625L11.873 63.7495L11.8578 63.7646C11.0763 64.5563 10.0224 65 8.92323 65C8.65094 65 8.37362 64.9697 8.10134 64.9143C6.76009 64.642 5.64575 63.7193 5.11127 62.4536L5.09614 62.4184L0.73457 52.4044L0.709357 52.3641L0.684148 52.3237C0.684148 52.3237 0.674061 52.3086 0.674061 52.3036C-0.243634 50.6396 -0.223464 48.663 0.729526 47.0293L0.759782 46.9739L8.74171 33.6219L2.86241 20.159L2.9683 20.1036V20.0935C2.71618 18.8531 2.91787 17.5623 3.55824 16.4328L3.59354 16.3723L3.6238 16.3168L11.8528 2.55139C12.7856 0.993327 14.4647 0.0252114 16.2597 0H58.0703L58.0653 0.0100867ZM14.858 54.9054H6.11468L8.6812 60.8452V60.8603C8.73162 60.9662 8.79717 61.0267 8.90306 61.0469C8.99382 61.067 9.06945 61.0469 9.14005 60.9813L9.15013 60.9712L14.858 54.9054ZM39.8475 34.4841H13.4209C13.3907 34.4841 13.3604 34.4841 13.3352 34.4841H13.3251L20.5709 51.0581H31.6891C32.148 51.0581 32.5866 50.811 32.8388 50.4228L32.8589 50.3925L41.098 36.617C41.3451 36.2086 41.3703 35.7296 41.1787 35.301C40.9518 34.8068 40.4324 34.4841 39.8526 34.4841H39.8475ZM10.6729 37.8877L4.13306 48.9101C3.87087 49.3488 3.85574 49.8631 4.09272 50.3169L4.11794 50.3623L4.13306 50.3824L4.15828 50.4278L4.2087 50.5035L4.26921 50.5791L4.32467 50.6446L4.33476 50.6547L4.37005 50.6951L4.40535 50.7253C4.61208 50.9119 4.8642 51.0278 5.14656 51.0531H5.20707L5.24237 51.0581H5.28775H16.3858L10.6729 37.8826V37.8877ZM8.95348 24.3844L11.8276 30.9747L11.883 30.9545C12.3772 30.7881 12.8965 30.6974 13.4209 30.6923H13.5016H39.1214L36.3734 24.3895H8.95852L8.95348 24.3844ZM57.9896 3.8523H31.4673L38.718 20.4313H49.8312C50.2901 20.4313 50.7288 20.1842 50.9809 19.7909L51.001 19.7607L59.2401 5.98518C59.4872 5.57676 59.5124 5.09774 59.3208 4.66915C59.0989 4.18509 58.5947 3.86239 58.03 3.84726H57.9947L57.9896 3.8523ZM27.4082 3.8523H16.3555C15.9017 3.8523 15.4631 4.09433 15.2109 4.48762L15.1908 4.51788L6.97187 18.2934C6.7248 18.7068 6.69958 19.1808 6.89623 19.6094C7.11305 20.0935 7.61728 20.4162 8.17697 20.4263H8.21227H34.6338L27.4032 3.84726L27.4082 3.8523Z" fill="#333232" stroke="black" stroke-width="2" mask="url(#path-1-inside-1_149_287)"/>
</svg>
