<svg width="63" height="66" viewBox="0 0 63 66" fill="none" xmlns="http://www.w3.org/2000/svg">
<path d="M31.5174 0.5C14.1578 0.5 0.0810547 15.4188 0.0810547 33.8229C0.0810547 48.5458 9.08851 61.0364 21.5791 65.4426C23.1501 65.7512 23.7269 64.7199 23.7269 63.8398C23.7269 63.0451 23.6977 60.4203 23.6842 57.6358C14.9387 59.6515 13.0933 53.7041 13.0933 53.7041C11.6632 49.8524 9.60283 48.8283 9.60283 48.8283C6.75061 46.76 9.81783 46.8027 9.81783 46.8027C12.9746 47.0376 14.6367 50.2366 14.6367 50.2366C17.4406 55.3309 21.9909 53.8581 23.7848 53.0067C24.067 50.8527 24.8816 49.3828 25.7806 48.5508C18.7982 47.708 11.4582 44.8506 11.4582 32.0824C11.4582 28.4443 12.6862 25.4716 14.6971 23.1381C14.3707 22.2988 13.2947 18.9095 15.0017 14.3196C15.0017 14.3196 17.6415 13.424 23.6489 17.7353C26.1566 16.997 28.8456 16.6267 31.5174 16.614C34.1888 16.6267 36.8804 16.997 39.3924 17.7353C45.3926 13.424 48.0288 14.3196 48.0288 14.3196C49.7399 18.9095 48.6635 22.2988 48.3369 23.1381C50.3526 25.4716 51.5723 28.4443 51.5723 32.0824C51.5723 44.8813 44.2182 47.6994 37.218 48.5241C38.3456 49.5584 39.3503 51.5861 39.3503 54.6951C39.3503 59.1537 39.3138 62.7422 39.3138 63.8398C39.3138 64.7265 39.8797 65.7655 41.4732 65.4383C53.957 61.0271 62.9531 48.5408 62.9531 33.8229C62.9531 15.4188 48.8782 0.5 31.5174 0.5ZM11.855 47.969C11.7857 48.1346 11.54 48.1842 11.3162 48.0706C11.0882 47.962 10.9601 47.736 11.034 47.5701C11.1017 47.3995 11.3479 47.3522 11.5754 47.4665C11.804 47.5751 11.9341 47.803 11.855 47.969ZM13.4013 49.4315C13.2514 49.5791 12.9583 49.5105 12.7594 49.2775C12.5538 49.0453 12.5153 48.7347 12.6673 48.5851C12.8219 48.4378 13.1061 48.5068 13.3123 48.739C13.5179 48.9743 13.558 49.2825 13.4013 49.4315ZM14.4621 51.3029C14.2695 51.4448 13.9546 51.3119 13.7599 51.0153C13.5672 50.7191 13.5672 50.3639 13.764 50.2212C13.9592 50.0789 14.2695 50.2069 14.4668 50.5011C14.6589 50.8024 14.6589 51.1579 14.4621 51.3029ZM16.2562 53.4702C16.0839 53.6715 15.7169 53.6175 15.4483 53.3426C15.1734 53.074 15.0969 52.6928 15.2697 52.4912C15.4441 52.2892 15.8132 52.3462 16.0839 52.6188C16.3567 52.8867 16.4399 53.2709 16.2562 53.4702ZM18.5749 54.2016C18.4989 54.4629 18.1454 54.5815 17.7893 54.4705C17.4338 54.3562 17.2011 54.0507 17.2729 53.7867C17.3469 53.5242 17.7019 53.4005 18.0606 53.5192C18.4156 53.6328 18.6488 53.9364 18.5749 54.2016ZM21.2137 54.5122C21.2225 54.7868 20.9206 55.0147 20.5468 55.0197C20.171 55.0287 19.8669 54.8061 19.8628 54.5358C19.8628 54.2583 20.1579 54.0327 20.5338 54.026C20.9076 54.0183 21.2137 54.2389 21.2137 54.5122ZM23.8058 54.4069C23.8508 54.6748 23.5911 54.9504 23.2198 55.0237C22.8549 55.0943 22.517 54.9287 22.4707 54.6628C22.4254 54.3879 22.6898 54.1126 23.0542 54.0413C23.4261 53.973 23.7587 54.1343 23.8058 54.4069Z" fill="#333232"/>
</svg>
