<svg width="66" height="66" viewBox="0 0 66 66" fill="none" xmlns="http://www.w3.org/2000/svg">
<path fill-rule="evenodd" clip-rule="evenodd" d="M50.7188 0.5H16.1875C7.77379 0.5 0.953125 7.32066 0.953125 15.7344V50.2656C0.953125 58.6793 7.77379 65.5 16.1875 65.5H50.7188C59.1325 65.5 65.9531 58.6793 65.9531 50.2656V15.7344C65.9531 7.32066 59.1325 0.5 50.7188 0.5ZM18.044 54.8187L18.0441 54.8186C19.484 57.8727 22.3204 60.4031 27.2065 60.4031C32.6173 60.4031 36.3258 57.5233 36.3258 51.1967V30.3413H30.2173V51.1104C30.2173 54.1644 28.9519 54.9494 26.9447 54.9494C24.8508 54.9494 23.9779 53.5098 23.0183 51.8084L18.0441 54.8186L18.0439 54.8182L18.044 54.8187ZM44.6174 51.2265L39.6439 54.1061C41.4327 57.6405 45.0978 60.3456 50.7698 60.3456C56.5728 60.3456 60.8923 57.3353 60.8923 51.8372C60.8923 46.7324 57.9688 44.464 52.7767 42.2385L51.2497 41.5842C48.6319 40.4495 47.4975 39.7076 47.4975 37.8751C47.4975 36.3918 48.6319 35.2574 50.4209 35.2574C52.1663 35.2574 53.3002 35.999 54.3476 37.8751L59.1035 34.8209C57.0966 31.2868 54.3042 29.934 50.4209 29.934C44.9668 29.934 41.4761 33.4247 41.4761 38.0062C41.4761 42.9802 44.3996 45.3364 48.8066 47.2123L50.3333 47.8671C53.1258 49.0884 54.7838 49.8303 54.7838 51.9245C54.7838 53.6699 53.17 54.9353 50.6388 54.9353C47.6285 54.9353 45.9268 53.3647 44.6174 51.2265Z" fill="#323330"/>
</svg>
