<svg width="65" height="66" viewBox="0 0 65 66" fill="none" xmlns="http://www.w3.org/2000/svg">
<path fill-rule="evenodd" clip-rule="evenodd" d="M49.7798 0.5H15.9001C7.64509 0.5 0.953125 7.32066 0.953125 15.7344V50.2656C0.953125 58.6793 7.64509 65.5 15.9001 65.5H49.7798C58.0347 65.5 64.7267 58.6793 64.7267 50.2656V15.7344C64.7267 7.32066 58.0347 0.5 49.7798 0.5ZM15.0554 33.2156L15.0351 35.8776H19.1854H23.3358V47.8975V59.9172H26.2715H29.2071V47.8975V35.8776H33.3573H37.5076V33.2672C37.5076 31.8227 37.4774 30.6156 37.4368 30.5847C37.4065 30.5435 32.3551 30.5227 26.2309 30.5331L15.0857 30.5641L15.0554 33.2156ZM56.4001 32.8302C55.2663 31.6335 54.0312 30.901 52.4117 30.4881C51.3082 30.2096 48.6967 30.1271 47.5729 30.3437C44.111 31.0145 41.7117 33.274 41.0336 36.5136C40.8413 37.4421 40.9021 39.743 41.145 40.6611C41.4384 41.7651 42.1472 43.086 42.8963 43.9111C44.1919 45.3351 45.6091 46.2326 48.899 47.6771C51.774 48.9461 52.7862 49.555 53.2821 50.2771C53.6668 50.8446 53.7579 51.1746 53.7579 51.928C53.7579 52.7636 53.5151 53.3311 52.9279 53.878C51.5513 55.1366 48.7572 55.2915 46.7227 54.1977C46.0139 53.816 44.8399 52.6707 44.3033 51.8351L43.9186 51.2572L42.0864 52.3406C41.0742 52.939 40.001 53.5685 39.7175 53.7335C39.4241 53.909 39.1608 54.074 39.1306 54.1151C39.0596 54.239 40.2036 55.962 40.7907 56.6225C42.2889 58.3145 44.7183 59.6041 47.2795 60.0685C48.4535 60.2851 51.0451 60.316 52.1382 60.12C55.6712 59.5111 58.1817 57.6746 59.1939 54.9716C60.1151 52.4851 59.8115 49.1421 58.455 47.0477C57.2401 45.17 55.2865 43.8494 50.7212 41.8477C48.241 40.7541 47.4513 40.2176 47.0264 39.32C46.8238 38.9072 46.7531 38.6081 46.7531 38.1025C46.7429 36.3795 47.9879 35.3477 49.9213 35.482C51.2374 35.5746 52.0978 36.101 52.9177 37.3185C53.191 37.7311 53.4341 37.9995 53.4949 37.9581C55.1752 36.8955 57.9488 34.997 57.9286 34.9145C57.8576 34.636 56.9872 33.47 56.4001 32.8302Z" fill="#333232"/>
</svg>
