<svg width="54" height="70" viewBox="0 0 54 70" fill="none" xmlns="http://www.w3.org/2000/svg">
<path d="M17.7131 54.1165C17.7131 54.1165 14.9747 55.7524 19.6192 56.2204C25.2278 56.9218 28.1934 56.8045 34.3851 55.6366C34.3851 55.6366 36.0518 56.6897 38.3148 57.507C24.3806 63.3506 6.75646 57.1563 17.7131 54.1165ZM15.927 46.5198C15.927 46.5198 12.9494 48.7409 17.5937 49.2074C23.6659 49.7916 28.4312 49.9088 36.6481 48.274C36.6481 48.274 37.7211 49.4433 39.5062 50.0275C22.7163 54.9362 3.89957 50.493 15.927 46.5198ZM48.795 59.8443C48.795 59.8443 50.8191 61.4802 46.532 62.7668C38.5527 65.1041 13.0689 65.8065 5.92365 62.7668C3.42404 61.7136 8.18673 60.1936 9.73403 59.9615C11.2826 59.6108 12.1154 59.6108 12.1154 59.6108C9.37678 57.7404 -6.10498 63.4678 4.2556 65.116C32.7172 69.6754 56.1782 63.1294 48.794 59.8562L48.795 59.8443ZM19.0229 38.5709C19.0229 38.5709 6.04193 41.6107 14.3772 42.6614C17.9499 43.1279 24.9757 43.0121 31.5258 42.5441C36.8848 42.0772 42.256 41.1417 42.256 41.1417C42.256 41.1417 40.35 41.96 39.0405 42.7776C25.8109 46.1701 0.445224 44.6504 7.70995 41.1438C13.9041 38.2213 19.0229 38.5709 19.0229 38.5709ZM42.2435 51.3113C55.583 44.5318 49.3888 37.9868 45.1017 38.8054C44.0287 39.0389 43.5533 39.2723 43.5533 39.2723C43.5533 39.2723 43.9103 38.5709 44.7444 38.3389C53.1991 35.4164 59.869 47.105 42.006 51.6634C42.006 51.6634 42.1255 51.5447 42.2435 51.3113ZM20.3324 69.7773C33.194 70.5959 52.8432 69.3103 53.32 63.3481C53.32 63.3481 52.3689 65.6854 42.7217 67.4389C31.7662 69.4255 18.1888 69.1921 10.2108 67.9055C10.2108 67.9055 11.8776 69.3079 20.3335 69.7759L20.3324 69.7773Z" fill="#333232"/>
<path d="M34.1344 0C34.1344 0 41.5176 7.36357 27.1086 18.4658C15.5569 27.4652 24.4872 32.6088 27.1086 38.4513C20.3207 32.4915 15.4398 27.2307 18.7723 22.3216C23.6667 15.079 37.1217 11.5725 34.1344 0ZM30.3241 33.5447C33.7771 37.4017 29.3731 40.9083 29.3731 40.9083C29.3731 40.9083 38.1851 36.4682 34.1369 30.9729C30.4447 25.7131 27.5868 23.1414 43.0684 14.3741C43.0684 14.3741 18.6554 20.3339 30.3266 33.5422L30.3241 33.5447Z" fill="#333232"/>
</svg>
