<svg width="64" height="66" viewBox="0 0 64 66" fill="none" xmlns="http://www.w3.org/2000/svg">
<path d="M57.6789 47.302C49.9409 57.9747 33.4109 54.372 22.8133 54.8901C22.8133 54.8901 20.9372 54.9981 19.0476 55.3203C19.0476 55.3203 19.7621 55.0046 20.6733 54.6795C28.1168 52.015 31.6342 51.4797 36.1569 49.0749C44.6547 44.5685 53.1122 34.7532 54.833 24.5566C51.5982 34.3634 41.761 42.8037 32.8036 46.231C26.6723 48.5731 15.5851 50.8523 15.5835 50.8533C15.5887 50.8614 15.1416 50.6131 15.1354 50.6076C7.59515 46.8099 7.37758 29.9045 21.0721 24.455C27.0766 22.0642 32.8196 23.3774 39.3105 21.7781C46.2334 20.0743 54.2514 14.7026 57.5104 7.67973C61.1639 18.8976 65.5527 36.448 57.6789 47.302ZM57.8135 4.20358C56.8924 6.46918 55.7679 8.51075 54.4721 10.3368C48.7674 4.27612 40.805 0.5 32.0039 0.5C14.6914 0.5 0.608398 15.08 0.608398 32.9982C0.608398 42.3914 4.4816 50.863 10.6567 56.8012L11.3442 57.4316C10.1962 56.4625 10.0196 54.7173 10.9501 53.5275C11.8864 52.3375 13.574 52.153 14.7226 53.1169C15.8744 54.0827 16.0498 55.8325 15.1173 57.0242C14.1883 58.2165 12.4976 58.3964 11.3474 57.4345L11.8152 57.8634C17.2775 62.6243 24.3187 65.5 32.0039 65.5C48.5518 65.5 62.14 52.1693 63.3031 35.3435C64.1645 27.1052 61.814 16.6442 57.8135 4.20358Z" fill="#333232"/>
</svg>
