<svg width="65" height="66" viewBox="0 0 65 66" fill="none" xmlns="http://www.w3.org/2000/svg">
<path d="M5.03394 32.999C5.03394 44.0347 11.3564 53.5719 20.5245 58.0915L7.41355 21.6525C5.88852 25.12 5.03394 28.9571 5.03394 32.999Z" fill="#333232"/>
<path d="M51.0755 31.5922C51.0755 28.1468 49.8554 25.7605 48.8089 23.9031C47.4155 21.6065 46.1095 19.6616 46.1095 17.365C46.1095 14.8021 48.0259 12.4164 50.725 12.4164C50.847 12.4164 50.9624 12.4318 51.0813 12.4387C46.1912 7.89431 39.6764 5.11975 32.5205 5.11975C22.9185 5.11975 14.4705 10.1172 9.55591 17.6865C10.2008 17.7062 10.8085 17.72 11.3247 17.72C14.1996 17.72 18.6498 17.3661 18.6498 17.3661C20.1314 17.2775 20.3061 19.485 18.826 19.6627C18.826 19.6627 17.337 19.8404 15.6802 19.9285L25.6891 50.1279L31.7041 31.8288L27.4219 19.9274C25.9419 19.8394 24.5398 19.6616 24.5398 19.6616C23.0586 19.5736 23.2323 17.2765 24.7135 17.365C24.7135 17.365 29.2524 17.7189 31.9531 17.7189C34.8277 17.7189 39.2782 17.365 39.2782 17.365C40.761 17.2765 40.935 19.4839 39.4544 19.6616C39.4544 19.6616 37.9623 19.8394 36.3086 19.9274L46.2415 49.8982L48.9829 40.6054C50.1713 36.7488 51.0755 33.9791 51.0755 31.5922Z" fill="#333232"/>
<path d="M33.0021 35.4377L24.7555 59.7453C27.2175 60.4795 29.8217 60.8813 32.5199 60.8813C35.7204 60.8813 38.7899 60.32 41.6469 59.3007C41.5733 59.1815 41.5063 59.0547 41.4515 58.9166L33.0021 35.4377Z" fill="#333232"/>
<path d="M56.6378 19.6227C56.756 20.5107 56.823 21.4641 56.823 22.4896C56.823 25.3187 56.302 28.4992 54.733 32.4761L46.3374 57.0986C54.5087 52.265 60.0049 43.2853 60.0049 32.9997C60.0053 28.1521 58.7848 23.5941 56.6378 19.6227Z" fill="#333232"/>
<path d="M32.5201 0.5C14.8537 0.5 0.480225 15.079 0.480225 32.9992C0.480225 50.9216 14.8537 65.5 32.5201 65.5C50.1857 65.5 64.5613 50.9216 64.5613 32.9992C64.5607 15.079 50.1857 0.5 32.5201 0.5ZM32.5201 64.0105C15.6638 64.0105 1.94932 50.0987 1.94932 32.9992C1.94932 15.9008 15.6633 1.99021 32.5201 1.99021C49.3757 1.99021 63.0891 15.9008 63.0891 32.9992C63.0891 50.0987 49.3757 64.0105 32.5201 64.0105Z" fill="#333232"/>
</svg>
